<svg width="32" height="32" viewBox="0 0 32 32" fill="none" xmlns="http://www.w3.org/2000/svg">
<path d="M13.3333 10.3667H24.0333V8.36669H13.3333V10.3667ZM13.3333 14.3667H24.0333V12.3667H13.3333V14.3667ZM13.3333 18.3667H20V16.3667H13.3333V18.3667ZM9.36663 10.7C9.7444 10.7 10.0611 10.5722 10.3166 10.3167C10.5722 10.0611 10.7 9.74446 10.7 9.36669C10.7 8.98891 10.5722 8.67224 10.3166 8.41669C10.0611 8.16113 9.7444 8.03335 9.36663 8.03335C8.98885 8.03335 8.67218 8.16113 8.41663 8.41669C8.16107 8.67224 8.03329 8.98891 8.03329 9.36669C8.03329 9.74446 8.16107 10.0611 8.41663 10.3167C8.67218 10.5722 8.98885 10.7 9.36663 10.7ZM9.36663 14.7C9.7444 14.7 10.0611 14.5722 10.3166 14.3167C10.5722 14.0611 10.7 13.7445 10.7 13.3667C10.7 12.9889 10.5722 12.6722 10.3166 12.4167C10.0611 12.1611 9.7444 12.0334 9.36663 12.0334C8.98885 12.0334 8.67218 12.1611 8.41663 12.4167C8.16107 12.6722 8.03329 12.9889 8.03329 13.3667C8.03329 13.7445 8.16107 14.0611 8.41663 14.3167C8.67218 14.5722 8.98885 14.7 9.36663 14.7ZM9.36663 18.7C9.7444 18.7 10.0611 18.5722 10.3166 18.3167C10.5722 18.0611 10.7 17.7445 10.7 17.3667C10.7 16.9889 10.5722 16.6722 10.3166 16.4167C10.0611 16.1611 9.7444 16.0334 9.36663 16.0334C8.98885 16.0334 8.67218 16.1611 8.41663 16.4167C8.16107 16.6722 8.03329 16.9889 8.03329 17.3667C8.03329 17.7445 8.16107 18.0611 8.41663 18.3167C8.67218 18.5722 8.98885 18.7 9.36663 18.7ZM2.66663 29.3334V4.66669C2.66663 4.15558 2.86663 3.69446 3.26663 3.28335C3.66663 2.87224 4.13329 2.66669 4.66663 2.66669H27.3333C27.8444 2.66669 28.3055 2.87224 28.7166 3.28335C29.1277 3.69446 29.3333 4.15558 29.3333 4.66669V22C29.3333 22.5111 29.1277 22.9722 28.7166 23.3834C28.3055 23.7945 27.8444 24 27.3333 24H7.99996L2.66663 29.3334ZM4.66663 24.5L7.16663 22H27.3333V4.66669H4.66663V24.5ZM4.66663 4.66669V24.5V4.66669Z" fill="url(#paint0_linear_12_535)"/>
<defs>
<linearGradient id="paint0_linear_12_535" x1="29.3333" y1="16" x2="2.66663" y2="16" gradientUnits="userSpaceOnUse">
<stop stop-color="#F6AD0A"/>
<stop offset="1" stop-color="#FFE353"/>
</linearGradient>
</defs>
</svg>
