<svg width="32" height="32" viewBox="0 0 32 32" fill="none" xmlns="http://www.w3.org/2000/svg">
<g clip-path="url(#clip0_10_370)">
<path d="M16 32C24.8366 32 32 24.8366 32 16C32 7.16344 24.8366 0 16 0C7.16344 0 0 7.16344 0 16C0 24.8366 7.16344 32 16 32Z" fill="black"/>
<path d="M16.032 30.464C24.0026 30.464 30.464 24.0026 30.464 16.032C30.464 8.0614 24.0026 1.59998 16.032 1.59998C8.0614 1.59998 1.59998 8.0614 1.59998 16.032C1.59998 24.0026 8.0614 30.464 16.032 30.464Z" fill="white"/>
<path fill-rule="evenodd" clip-rule="evenodd" d="M30.5279 16H1.664C1.68127 8.04414 8.13607 1.59998 16.0959 1.59998C24.0559 1.59998 30.5107 8.04414 30.5279 16Z" fill="#079B94"/>
<path d="M16.064 20.672C18.6796 20.672 20.8 18.5803 20.8 16C20.8 13.4197 18.6796 11.328 16.064 11.328C13.4484 11.328 11.328 13.4197 11.328 16C11.328 18.5803 13.4484 20.672 16.064 20.672Z" fill="black"/>
<path d="M31.104 14.72H0.960022V17.28H31.104V14.72Z" fill="black"/>
<path d="M16 19.2C17.7673 19.2 19.2 17.7674 19.2 16C19.2 14.2327 17.7673 12.8 16 12.8C14.2327 12.8 12.8 14.2327 12.8 16C12.8 17.7674 14.2327 19.2 16 19.2Z" fill="white"/>
</g>
<defs>
<clipPath id="clip0_10_370">
<rect width="32" height="32" fill="white"/>
</clipPath>
</defs>
</svg>
