<svg width="32" height="32" viewBox="0 0 32 32" fill="none" xmlns="http://www.w3.org/2000/svg">
<path d="M13.3334 10.3666H24.0334V8.36663H13.3334V10.3666ZM13.3334 14.3666H24.0334V12.3666H13.3334V14.3666ZM13.3334 18.3666H20V16.3666H13.3334V18.3666ZM9.36669 10.7C9.74446 10.7 10.0611 10.5722 10.3167 10.3166C10.5722 10.0611 10.7 9.7444 10.7 9.36663C10.7 8.98885 10.5722 8.67218 10.3167 8.41663C10.0611 8.16107 9.74446 8.03329 9.36669 8.03329C8.98891 8.03329 8.67224 8.16107 8.41669 8.41663C8.16113 8.67218 8.03335 8.98885 8.03335 9.36663C8.03335 9.7444 8.16113 10.0611 8.41669 10.3166C8.67224 10.5722 8.98891 10.7 9.36669 10.7ZM9.36669 14.7C9.74446 14.7 10.0611 14.5722 10.3167 14.3166C10.5722 14.0611 10.7 13.7444 10.7 13.3666C10.7 12.9888 10.5722 12.6722 10.3167 12.4166C10.0611 12.1611 9.74446 12.0333 9.36669 12.0333C8.98891 12.0333 8.67224 12.1611 8.41669 12.4166C8.16113 12.6722 8.03335 12.9888 8.03335 13.3666C8.03335 13.7444 8.16113 14.0611 8.41669 14.3166C8.67224 14.5722 8.98891 14.7 9.36669 14.7ZM9.36669 18.7C9.74446 18.7 10.0611 18.5722 10.3167 18.3166C10.5722 18.0611 10.7 17.7444 10.7 17.3666C10.7 16.9888 10.5722 16.6722 10.3167 16.4166C10.0611 16.1611 9.74446 16.0333 9.36669 16.0333C8.98891 16.0333 8.67224 16.1611 8.41669 16.4166C8.16113 16.6722 8.03335 16.9888 8.03335 17.3666C8.03335 17.7444 8.16113 18.0611 8.41669 18.3166C8.67224 18.5722 8.98891 18.7 9.36669 18.7ZM2.66669 29.3333V4.66663C2.66669 4.15551 2.86669 3.6944 3.26669 3.28329C3.66669 2.87218 4.13335 2.66663 4.66669 2.66663H27.3334C27.8445 2.66663 28.3056 2.87218 28.7167 3.28329C29.1278 3.6944 29.3334 4.15551 29.3334 4.66663V22C29.3334 22.5111 29.1278 22.9722 28.7167 23.3833C28.3056 23.7944 27.8445 24 27.3334 24H8.00002L2.66669 29.3333ZM4.66669 24.5L7.16669 22H27.3334V4.66663H4.66669V24.5ZM4.66669 4.66663V24.5V4.66663Z" fill="url(#paint0_linear_12_529)"/>
<defs>
<linearGradient id="paint0_linear_12_529" x1="29.3334" y1="16" x2="2.66669" y2="16" gradientUnits="userSpaceOnUse">
<stop stop-color="#F6AD0A"/>
<stop offset="1" stop-color="#FFE353"/>
</linearGradient>
</defs>
</svg>
